<svg width="24" height="25" viewBox="0 0 24 25" fill="none" xmlns="http://www.w3.org/2000/svg">
<mask id="mask0_17_721" style="mask-type:alpha" maskUnits="userSpaceOnUse" x="0" y="0" width="24" height="25">
<rect y="0.5" width="24" height="24" fill="#D9D9D9"/>
</mask>
<g mask="url(#mask0_17_721)">
<path d="M7 13.5H9V9.5H7V13.5ZM11 17.5H13V16.5C13 16.2 12.9083 15.9583 12.725 15.775C12.5417 15.5917 12.3 15.5 12 15.5C11.7 15.5 11.4583 15.5917 11.275 15.775C11.0917 15.9583 11 16.2 11 16.5V17.5ZM15 13.5H17V9.5H15V13.5ZM12 22.5C10.6167 22.5 9.31667 22.2375 8.1 21.7125C6.88333 21.1875 5.825 20.475 4.925 19.575C4.025 18.675 3.3125 17.6167 2.7875 16.4C2.2625 15.1833 2 13.8833 2 12.5C2 11.1167 2.2625 9.81667 2.7875 8.6C3.3125 7.38333 4.025 6.325 4.925 5.425C5.825 4.525 6.88333 3.8125 8.1 3.2875C9.31667 2.7625 10.6167 2.5 12 2.5C13.3833 2.5 14.6833 2.7625 15.9 3.2875C17.1167 3.8125 18.175 4.525 19.075 5.425C19.975 6.325 20.6875 7.38333 21.2125 8.6C21.7375 9.81667 22 11.1167 22 12.5C22 13.8833 21.7375 15.1833 21.2125 16.4C20.6875 17.6167 19.975 18.675 19.075 19.575C18.175 20.475 17.1167 21.1875 15.9 21.7125C14.6833 22.2375 13.3833 22.5 12 22.5ZM12 20.5C14.2333 20.5 16.125 19.725 17.675 18.175C19.225 16.625 20 14.7333 20 12.5C20 10.2667 19.225 8.375 17.675 6.825C16.125 5.275 14.2333 4.5 12 4.5C9.76667 4.5 7.875 5.275 6.325 6.825C4.775 8.375 4 10.2667 4 12.5C4 14.7333 4.775 16.625 6.325 18.175C7.875 19.725 9.76667 20.5 12 20.5Z" fill="#1C1B1F"/>
</g>
</svg>
