<svg width="24" height="25" viewBox="0 0 24 25" fill="none" xmlns="http://www.w3.org/2000/svg">
<mask id="mask0_17_731" style="mask-type:alpha" maskUnits="userSpaceOnUse" x="0" y="0" width="24" height="25">
<rect y="0.5" width="24" height="24" fill="#D9D9D9"/>
</mask>
<g mask="url(#mask0_17_731)">
<path d="M4 22.5V11.5H2V5.5H7.2C7.11667 5.35 7.0625 5.19167 7.0375 5.025C7.0125 4.85833 7 4.68333 7 4.5C7 3.66667 7.29167 2.95833 7.875 2.375C8.45833 1.79167 9.16667 1.5 10 1.5C10.3833 1.5 10.7417 1.57083 11.075 1.7125C11.4083 1.85417 11.7167 2.05 12 2.3C12.2833 2.03333 12.5917 1.83333 12.925 1.7C13.2583 1.56667 13.6167 1.5 14 1.5C14.8333 1.5 15.5417 1.79167 16.125 2.375C16.7083 2.95833 17 3.66667 17 4.5C17 4.68333 16.9833 4.85417 16.95 5.0125C16.9167 5.17083 16.8667 5.33333 16.8 5.5H22V11.5H20V22.5H4ZM14 3.5C13.7167 3.5 13.4792 3.59583 13.2875 3.7875C13.0958 3.97917 13 4.21667 13 4.5C13 4.78333 13.0958 5.02083 13.2875 5.2125C13.4792 5.40417 13.7167 5.5 14 5.5C14.2833 5.5 14.5208 5.40417 14.7125 5.2125C14.9042 5.02083 15 4.78333 15 4.5C15 4.21667 14.9042 3.97917 14.7125 3.7875C14.5208 3.59583 14.2833 3.5 14 3.5ZM9 4.5C9 4.78333 9.09583 5.02083 9.2875 5.2125C9.47917 5.40417 9.71667 5.5 10 5.5C10.2833 5.5 10.5208 5.40417 10.7125 5.2125C10.9042 5.02083 11 4.78333 11 4.5C11 4.21667 10.9042 3.97917 10.7125 3.7875C10.5208 3.59583 10.2833 3.5 10 3.5C9.71667 3.5 9.47917 3.59583 9.2875 3.7875C9.09583 3.97917 9 4.21667 9 4.5ZM4 7.5V9.5H11V7.5H4ZM11 20.5V11.5H6V20.5H11ZM13 20.5H18V11.5H13V20.5ZM20 9.5V7.5H13V9.5H20Z" fill="#1C1B1F"/>
</g>
</svg>
