<svg width="24" height="25" viewBox="0 0 24 25" fill="none" xmlns="http://www.w3.org/2000/svg">
<mask id="mask0_17_716" style="mask-type:alpha" maskUnits="userSpaceOnUse" x="0" y="0" width="24" height="25">
<rect y="0.5" width="24" height="24" fill="#D9D9D9"/>
</mask>
<g mask="url(#mask0_17_716)">
<path d="M21.025 11.55V19.5C21.025 20.05 20.8292 20.5208 20.4375 20.9125C20.0459 21.3042 19.575 21.5 19.025 21.5H5.02503C4.47503 21.5 4.00419 21.3042 3.61253 20.9125C3.22086 20.5208 3.02503 20.05 3.02503 19.5V11.55C2.64169 11.2 2.34586 10.75 2.13753 10.2C1.92919 9.65 1.92503 9.05 2.12503 8.4L3.17503 5C3.30836 4.56667 3.54586 4.20833 3.88753 3.925C4.22919 3.64167 4.62503 3.5 5.07503 3.5H18.975C19.425 3.5 19.8167 3.6375 20.15 3.9125C20.4834 4.1875 20.725 4.55 20.875 5L21.925 8.4C22.125 9.05 22.1209 9.64167 21.9125 10.175C21.7042 10.7083 21.4084 11.1667 21.025 11.55ZM14.225 10.5C14.675 10.5 15.0167 10.3458 15.25 10.0375C15.4834 9.72917 15.575 9.38333 15.525 9L14.975 5.5H13.025V9.2C13.025 9.55 13.1417 9.85417 13.375 10.1125C13.6084 10.3708 13.8917 10.5 14.225 10.5ZM9.72503 10.5C10.1084 10.5 10.4209 10.3708 10.6625 10.1125C10.9042 9.85417 11.025 9.55 11.025 9.2V5.5H9.07503L8.52503 9C8.45836 9.4 8.54586 9.75 8.78753 10.05C9.02919 10.35 9.34169 10.5 9.72503 10.5ZM5.27503 10.5C5.57503 10.5 5.83753 10.3917 6.06253 10.175C6.28753 9.95833 6.42503 9.68333 6.47503 9.35L7.02503 5.5H5.07503L4.07503 8.85C3.97503 9.18333 4.02919 9.54167 4.23753 9.925C4.44586 10.3083 4.79169 10.5 5.27503 10.5ZM18.775 10.5C19.2584 10.5 19.6084 10.3083 19.825 9.925C20.0417 9.54167 20.0917 9.18333 19.975 8.85L18.925 5.5H17.025L17.575 9.35C17.625 9.68333 17.7625 9.95833 17.9875 10.175C18.2125 10.3917 18.475 10.5 18.775 10.5ZM5.02503 19.5H19.025V12.45C18.9417 12.4833 18.8875 12.5 18.8625 12.5H18.775C18.325 12.5 17.9292 12.425 17.5875 12.275C17.2459 12.125 16.9084 11.8833 16.575 11.55C16.275 11.85 15.9334 12.0833 15.55 12.25C15.1667 12.4167 14.7584 12.5 14.325 12.5C13.875 12.5 13.4542 12.4167 13.0625 12.25C12.6709 12.0833 12.325 11.85 12.025 11.55C11.7417 11.85 11.4125 12.0833 11.0375 12.25C10.6625 12.4167 10.2584 12.5 9.82503 12.5C9.34169 12.5 8.90419 12.4167 8.51253 12.25C8.12086 12.0833 7.77503 11.85 7.47503 11.55C7.12503 11.9 6.77919 12.1458 6.43753 12.2875C6.09586 12.4292 5.70836 12.5 5.27503 12.5H5.16253C5.12086 12.5 5.07503 12.4833 5.02503 12.45V19.5Z" fill="#1C1B1F"/>
</g>
</svg>
